<?xml version="1.0" encoding="utf-8"?>
<!-- Generator: Adobe Illustrator 17.0.0, SVG Export Plug-In . SVG Version: 6.00 Build 0)  -->
<!DOCTYPE svg PUBLIC "-//W3C//DTD SVG 1.1//EN" "http://www.w3.org/Graphics/SVG/1.1/DTD/svg11.dtd">
<svg version="1.1" id="Layer_1" xmlns="http://www.w3.org/2000/svg" xmlns:xlink="http://www.w3.org/1999/xlink" x="0px" y="0px"
	 width="75.763px" height="86.409px" viewBox="13.497 7.373 75.763 86.409" enable-background="new 13.497 7.373 75.763 86.409"
	 xml:space="preserve">
<path fill="#A31E22" d="M84.694,50.668c-0.279,4.085-3.324,7.201-7.412,7.412c-6.508,0.336-45.374,0.355-51.837,0
	c-4.088-0.225-7.142-3.327-7.412-7.412c-0.353-5.338,0-31.319,0-31.319c0-4.094,3.323-7.211,7.412-7.412
	c6.482-0.32,45.368-0.32,51.837,0c4.089,0.202,7.158,3.326,7.412,7.412C85.025,24.676,85.059,45.31,84.694,50.668 M88.998,18.055
	c-0.294-5.75-4.672-10.184-10.423-10.423c-8.096-0.337-46.29-0.354-54.423,0c-5.752,0.25-10.145,4.673-10.423,10.423
	c-0.337,6.973-0.28,26.952,0,33.906c0.232,5.752,4.673,10.147,10.457,10.425l0.492,0.043V89.97c0,2.559,2.074,3.812,4.633,3.812
	h5.299c2.558,0,4.633-1.253,4.633-3.812V62.633c14.039,0.083,33.838-0.011,39.334-0.249C84.329,62.135,88.718,57.71,89,51.961
	C89.341,44.997,89.352,24.996,88.998,18.055"/>
</svg>
